<svg xmlns="http://www.w3.org/2000/svg" viewBox="0 0 190 55" width="100%" height="100%">
  <g transform="translate(14, 4)">
    <text x="0" y="14" font-family="'Helvetica Neue', Arial, 'Manrope', sans-serif" font-weight="900" font-size="14" letter-spacing="1px" fill="#111111">THE</text>
    <text x="0" y="28" font-family="'Helvetica Neue', Arial, 'Manrope', sans-serif" font-weight="900" font-size="14" letter-spacing="1px" fill="#111111">NORTH</text>
    <text x="0" y="42" font-family="'Helvetica Neue', Arial, 'Manrope', sans-serif" font-weight="900" font-size="14" letter-spacing="1px" fill="#111111">FACE</text>
    <!-- Half Dome quarter arches -->
    <g fill="none" stroke="#111111" stroke-width="3.5" stroke-linecap="round" transform="translate(85, 4)">
      <path d="M0,38 A20,20 0 0,1 20,18 A20,20 0 0,1 40,38"/>
      <path d="M7,38 A13,13 0 0,1 20,25 A13,13 0 0,1 33,38"/>
      <path d="M14,38 A6,6 0 0,1 20,32 A6,6 0 0,1 26,38"/>
    </g>
  </g>
</svg>
